<svg width="1024" height="1024" viewBox="0 0 1024 1024" xml:space="preserve" xmlns="http://www.w3.org/2000/svg">
  <style>
    .f1{fill:#37023d}
    .f2{fill:#05625d}
  </style>
  <g class="f1" style="fill:none;fill-rule:evenodd;stroke:none;stroke-width:1">
    <path class="f1" d="M443.06 156.914 600-1v404.297L468.705 601 442 571.971z" transform="matrix(-1.35093 0 0 1.35093 1524.641 20.935)" style="fill-opacity:1"/>
    <path class="f2" d="M154.986 0 558 615.19 445.225 728 42 114.172Z" style=";fill-opacity:1" transform="translate(116.972 20.935)scale(1.35093)"/>
  </g>
  <path class="f1" style="color:#000;clip-rule:nonzero;display:inline;overflow:visible;visibility:visible;opacity:1;isolation:auto;mix-blend-mode:normal;color-interpolation:sRGB;color-interpolation-filters:linearRGB;solid-color:#000;solid-opacity:1;fill-opacity:1;fill-rule:evenodd;stroke:none;stroke-width:3;stroke-linecap:butt;stroke-linejoin:round;stroke-miterlimit:4;stroke-dasharray:none;stroke-dashoffset:0;stroke-opacity:1;color-rendering:auto;image-rendering:auto;shape-rendering:auto;text-rendering:auto" d="M153.644 261.88 275.84 473.553l-56.157.527-32.623-56.87-32.857 56.566-27.902-.011-14.29-24.69 46.81-80.49-33.23-57.825z" transform="rotate(-14.185 2873.544 -11.808)scale(.36111)"/>
  <path class="f2" style="color:#000;clip-rule:nonzero;display:inline;overflow:visible;visibility:visible;opacity:1;isolation:auto;mix-blend-mode:normal;color-interpolation:sRGB;color-interpolation-filters:linearRGB;solid-color:#000;solid-opacity:1;fill-opacity:1;fill-rule:evenodd;stroke:none;stroke-width:3;stroke-linecap:butt;stroke-linejoin:round;stroke-miterlimit:4;stroke-dasharray:none;stroke-dashoffset:0;stroke-opacity:1;color-rendering:auto;image-rendering:auto;shape-rendering:auto;text-rendering:auto" d="M205.518 159.085 83.3 370.748l-28.535-48.37 32.939-56.688-65.416-.172-13.941-24.17 14.236-24.72 93.112.294 33.464-57.69zm354.44 311.399L432.395 678.969 405.1 629.89l34.37-55.831-65.39-1.836-13.322-24.517 14.86-24.35 93.075 2.662 34.92-56.82zM146.03-199.325 270.016 11.307l-56.15 1.002-33.104-56.59-32.376 56.841-27.902.226-14.5-24.568 46.127-80.884-33.718-57.542Z" transform="rotate(-14.185 2873.544 -11.808)scale(.36111)"/>
  <path class="f1" d="m89.582 20.875 244.404 2.18-28.055 48.65-65.557-.763 32.054 57.024-14.175 24.033-28.526-.221-45.583-81.192-66.69-.726zm237.704 483.739L448.3 716.97l-56.16.213-32.305-57.05-33.171 56.38-27.902-.167-14.153-24.77 47.26-80.227-32.907-58.01z" style="color:#000;clip-rule:nonzero;display:inline;overflow:visible;visibility:visible;opacity:1;isolation:auto;mix-blend-mode:normal;color-interpolation:sRGB;color-interpolation-filters:linearRGB;solid-color:#000;solid-opacity:1;fill-opacity:1;fill-rule:evenodd;stroke:none;stroke-width:3;stroke-linecap:butt;stroke-linejoin:round;stroke-miterlimit:4;stroke-dasharray:none;stroke-dashoffset:0;stroke-opacity:1;color-rendering:auto;image-rendering:auto;shape-rendering:auto;text-rendering:auto" transform="rotate(-14.185 2873.544 -11.808)scale(.36111)"/>
  <path class="f2" style="color:#000;clip-rule:nonzero;display:inline;overflow:visible;visibility:visible;opacity:1;isolation:auto;mix-blend-mode:normal;color-interpolation:sRGB;color-interpolation-filters:linearRGB;solid-color:#000;solid-opacity:1;fill-opacity:1;fill-rule:evenodd;stroke:none;stroke-width:3;stroke-linecap:butt;stroke-linejoin:round;stroke-miterlimit:4;stroke-dasharray:none;stroke-dashoffset:0;stroke-opacity:1;color-rendering:auto;image-rendering:auto;shape-rendering:auto;text-rendering:auto" d="m411.076 935.55-121.1-212.305 56.158-.236 32.33 57.037 33.148-56.395 27.902.156 14.163 24.763-47.226 80.247 32.93 57.996zM385.91 225.033 264.69 437.269l-28.762-48.235 32.671-56.842-65.415.136-14.055-24.103 14.12-24.788 93.112-.145 33.191-57.847z" transform="rotate(-14.185 2873.544 -11.808)scale(.36111)"/>
  <path class="f1" style="color:#000;clip-rule:nonzero;display:inline;overflow:visible;visibility:visible;opacity:1;isolation:auto;mix-blend-mode:normal;color-interpolation:sRGB;color-interpolation-filters:linearRGB;solid-color:#000;solid-opacity:1;fill-opacity:1;fill-rule:evenodd;stroke:none;stroke-width:3;stroke-linecap:butt;stroke-linejoin:round;stroke-miterlimit:4;stroke-dasharray:none;stroke-dashoffset:0;stroke-opacity:1;color-rendering:auto;image-rendering:auto;shape-rendering:auto;text-rendering:auto" d="M674.913-553.229 556.091-766.816l56.159.364 31.717 57.38 33.75-56.037 27.898.454 13.898 24.913-48.082 79.738 32.307 58.345z" transform="rotate(-14.185 2873.544 -11.808)scale(.36111)"/>
  <path class="f2" style="color:#000;clip-rule:nonzero;display:inline;overflow:visible;visibility:visible;opacity:1;isolation:auto;mix-blend-mode:normal;color-interpolation:sRGB;color-interpolation-filters:linearRGB;solid-color:#000;solid-opacity:1;fill-opacity:1;fill-rule:evenodd;stroke:none;stroke-width:3;stroke-linecap:butt;stroke-linejoin:round;stroke-miterlimit:4;stroke-dasharray:none;stroke-dashoffset:0;stroke-opacity:1;color-rendering:auto;image-rendering:auto;shape-rendering:auto;text-rendering:auto" d="m634.826-476.464 129.805-207.097 26.764 49.372-34.97 55.457 65.366 2.541 13.057 24.66-15.123 24.188-93.04-3.666-35.532 56.44zm66.985-296.601-244.275-8.252 29.255-47.938 65.519 2.392-30.628-57.802 14.768-23.674 28.512.93 43.551 82.299 66.65 2.383zM534.102-49.176 413.889-261.984l56.16-.002 32.09 57.172 33.384-56.256 27.901.272 14.06 24.822-47.561 80.05 32.687 58.133z" transform="rotate(-14.185 2873.544 -11.808)scale(.36111)"/>
  <path class="f1" d="m536.333-466.85 244.414-.314-27.557 48.933-65.562-.094 32.635 56.694-13.929 24.177-28.527.07-46.41-80.723-66.693-.046zm46.218-535.914-125.739 209.59-27.722-48.84 33.882-56.13-65.403-1.265-13.536-24.4 14.648-24.479 93.094 1.85 34.423-57.122z" style="color:#000;clip-rule:nonzero;display:inline;overflow:visible;visibility:visible;opacity:1;isolation:auto;mix-blend-mode:normal;color-interpolation:sRGB;color-interpolation-filters:linearRGB;solid-color:#000;solid-opacity:1;fill-opacity:1;fill-rule:evenodd;stroke:none;stroke-width:3;stroke-linecap:butt;stroke-linejoin:round;stroke-miterlimit:4;stroke-dasharray:none;stroke-dashoffset:0;stroke-opacity:1;color-rendering:auto;image-rendering:auto;shape-rendering:auto;text-rendering:auto" transform="rotate(-14.185 2873.544 -11.808)scale(.36111)"/>
  <path class="f2" style="color:#000;clip-rule:nonzero;display:inline;overflow:visible;visibility:visible;opacity:1;isolation:auto;mix-blend-mode:normal;color-interpolation:sRGB;color-interpolation-filters:linearRGB;solid-color:#000;solid-opacity:1;fill-opacity:1;fill-rule:evenodd;stroke:none;stroke-width:3;stroke-linecap:butt;stroke-linejoin:round;stroke-miterlimit:4;stroke-dasharray:none;stroke-dashoffset:0;stroke-opacity:1;color-rendering:auto;image-rendering:auto;shape-rendering:auto;text-rendering:auto" d="m406.673-963.443 128.523-207.895 27.068 49.206-34.627 55.672 65.38 2.137 13.21 24.578-14.973 24.282-93.06-3.092-35.183 56.659zm32.945 436.322 122.198-211.675 28.539 48.368-32.933 56.69 65.415.166 13.944 24.168-14.234 24.723-93.112-.286-33.458 57.694z" transform="rotate(-14.185 2873.544 -11.808)scale(.36111)"/>
  <path class="f1" d="M574.579-205.549 695.523 6.844l-56.16.195-32.286-57.06-33.19 56.37-27.902-.177L531.84-18.6l47.285-80.212-32.887-58.021z" style="color:#000;clip-rule:nonzero;display:inline;overflow:visible;visibility:visible;opacity:1;isolation:auto;mix-blend-mode:normal;color-interpolation:sRGB;color-interpolation-filters:linearRGB;solid-color:#000;solid-opacity:1;fill-opacity:1;fill-rule:evenodd;stroke:none;stroke-width:3;stroke-linecap:butt;stroke-linejoin:round;stroke-miterlimit:4;stroke-dasharray:none;stroke-dashoffset:0;stroke-opacity:1;color-rendering:auto;image-rendering:auto;shape-rendering:auto;text-rendering:auto" transform="rotate(-14.185 2873.544 -11.808)scale(.36111)"/>
  <path class="f2" style="color:#000;clip-rule:nonzero;display:inline;overflow:visible;visibility:visible;opacity:1;isolation:auto;mix-blend-mode:normal;color-interpolation:sRGB;color-interpolation-filters:linearRGB;solid-color:#000;solid-opacity:1;fill-opacity:1;fill-rule:evenodd;stroke:none;stroke-width:3;stroke-linecap:butt;stroke-linejoin:round;stroke-miterlimit:4;stroke-dasharray:none;stroke-dashoffset:0;stroke-opacity:1;color-rendering:auto;image-rendering:auto;shape-rendering:auto;text-rendering:auto" d="m605.613-31.102-118.477 213.78 56.157-.456 31.625-57.43 33.84 55.982 27.898-.5 13.857-24.935-48.21-79.66 32.213-58.397z" transform="rotate(-14.185 2873.544 -11.808)scale(.36111)"/>
  <path class="f1" d="m519.136 88.674-244.414.45 27.71 48.847 65.561-.3-32.457 56.796 14.004 24.134 28.528-.02 46.156-80.867 66.693-.255z" style="color:#000;clip-rule:nonzero;display:inline;overflow:visible;visibility:visible;opacity:1;isolation:auto;mix-blend-mode:normal;color-interpolation:sRGB;color-interpolation-filters:linearRGB;solid-color:#000;solid-opacity:1;fill-opacity:1;fill-rule:evenodd;stroke:none;stroke-width:3;stroke-linecap:butt;stroke-linejoin:round;stroke-miterlimit:4;stroke-dasharray:none;stroke-dashoffset:0;stroke-opacity:1;color-rendering:auto;image-rendering:auto;shape-rendering:auto;text-rendering:auto" transform="rotate(-14.185 2873.544 -11.808)scale(.36111)"/>
  <path class="f2" style="color:#000;clip-rule:nonzero;display:inline;overflow:visible;visibility:visible;opacity:1;isolation:auto;mix-blend-mode:normal;color-interpolation:sRGB;color-interpolation-filters:linearRGB;solid-color:#000;solid-opacity:1;fill-opacity:1;fill-rule:evenodd;stroke:none;stroke-width:3;stroke-linecap:butt;stroke-linejoin:round;stroke-miterlimit:4;stroke-dasharray:none;stroke-dashoffset:0;stroke-opacity:1;color-rendering:auto;image-rendering:auto;shape-rendering:auto;text-rendering:auto" d="M465.78-145.538 347.304 68.242l56.158-.456 31.624-57.43 33.84 55.982 27.899-.5 13.857-24.935-48.21-79.66 32.213-58.397z" transform="rotate(-14.185 2873.544 -11.808)scale(.36111)"/>
  <path class="f1" d="m445.636-120.65-244.414.45 27.71 48.847 65.562-.3-32.457 56.796L276.04 9.277l28.527-.02 46.157-80.867 66.692-.255zm4.945-440.9L328.838-773.488l56.158-.406 32.502 56.939 32.977-56.495 27.902.07 14.238 24.72-46.982 80.39 33.105 57.897z" style="color:#000;clip-rule:nonzero;display:inline;overflow:visible;visibility:visible;opacity:1;isolation:auto;mix-blend-mode:normal;color-interpolation:sRGB;color-interpolation-filters:linearRGB;solid-color:#000;solid-opacity:1;fill-opacity:1;fill-rule:evenodd;stroke:none;stroke-width:3;stroke-linecap:butt;stroke-linejoin:round;stroke-miterlimit:4;stroke-dasharray:none;stroke-dashoffset:0;stroke-opacity:1;color-rendering:auto;image-rendering:auto;shape-rendering:auto;text-rendering:auto" transform="rotate(-14.185 2873.544 -11.808)scale(.36111)"/>
  <path class="f2" style="color:#000;clip-rule:nonzero;display:inline;overflow:visible;visibility:visible;opacity:1;isolation:auto;mix-blend-mode:normal;color-interpolation:sRGB;color-interpolation-filters:linearRGB;solid-color:#000;solid-opacity:1;fill-opacity:1;fill-rule:evenodd;stroke:none;stroke-width:3;stroke-linecap:butt;stroke-linejoin:round;stroke-miterlimit:4;stroke-dasharray:none;stroke-dashoffset:0;stroke-opacity:1;color-rendering:auto;image-rendering:auto;shape-rendering:auto;text-rendering:auto" d="m235.635-674.63 114.45 215.96 30.273-47.301-30.858-57.846 65.378 2.203 14.81-23.647-13.33-25.222-93.06-3.087-31.347-58.868z" transform="rotate(-14.185 2873.544 -11.808)scale(.36111)"/>
  <path class="f1" d="M504.252-285.599 386.054-499.532 356.61-451.71l31.862 57.3-65.406-1.064-14.396 23.902 13.767 24.986 93.101 1.464 32.368 58.312z" style="color:#000;clip-rule:nonzero;display:inline;overflow:visible;visibility:visible;opacity:1;isolation:auto;mix-blend-mode:normal;color-interpolation:sRGB;color-interpolation-filters:linearRGB;solid-color:#000;solid-opacity:1;fill-opacity:1;fill-rule:evenodd;stroke:none;stroke-width:3;stroke-linecap:butt;stroke-linejoin:round;stroke-miterlimit:4;stroke-dasharray:none;stroke-dashoffset:0;stroke-opacity:1;color-rendering:auto;image-rendering:auto;shape-rendering:auto;text-rendering:auto" transform="rotate(-14.185 2873.544 -11.808)scale(.36111)"/>
  <path class="f2" style="color:#000;clip-rule:nonzero;display:inline;overflow:visible;visibility:visible;opacity:1;isolation:auto;mix-blend-mode:normal;color-interpolation:sRGB;color-interpolation-filters:linearRGB;solid-color:#000;solid-opacity:1;fill-opacity:1;fill-rule:evenodd;stroke:none;stroke-width:3;stroke-linecap:butt;stroke-linejoin:round;stroke-miterlimit:4;stroke-dasharray:none;stroke-dashoffset:0;stroke-opacity:1;color-rendering:auto;image-rendering:auto;shape-rendering:auto;text-rendering:auto" d="m365.828-342.732-118.477 213.78 56.157-.456 31.625-57.43 33.84 55.981 27.898-.498 13.857-24.936-48.21-79.66 32.213-58.397z" transform="rotate(-14.185 2873.544 -11.808)scale(.36111)"/>
  <path class="f1" d="M337.308-303.552 92.916-300.26l28.276 48.522 65.554-1.062-31.795 57.17 14.284 23.968 28.525-.351 45.213-81.398 66.685-1.03z" style="color:#000;clip-rule:nonzero;display:inline;overflow:visible;visibility:visible;opacity:1;isolation:auto;mix-blend-mode:normal;color-interpolation:sRGB;color-interpolation-filters:linearRGB;solid-color:#000;solid-opacity:1;fill-opacity:1;fill-rule:evenodd;stroke:none;stroke-width:3;stroke-linecap:butt;stroke-linejoin:round;stroke-miterlimit:4;stroke-dasharray:none;stroke-dashoffset:0;stroke-opacity:1;color-rendering:auto;image-rendering:auto;shape-rendering:auto;text-rendering:auto" transform="rotate(-14.185 2873.544 -11.808)scale(.36111)"/>
  <path class="f2" style="color:#000;clip-rule:nonzero;display:inline;overflow:visible;visibility:visible;opacity:1;isolation:auto;mix-blend-mode:normal;color-interpolation:sRGB;color-interpolation-filters:linearRGB;solid-color:#000;solid-opacity:1;fill-opacity:1;fill-rule:evenodd;stroke:none;stroke-width:3;stroke-linecap:butt;stroke-linejoin:round;stroke-miterlimit:4;stroke-dasharray:none;stroke-dashoffset:0;stroke-opacity:1;color-rendering:auto;image-rendering:auto;shape-rendering:auto;text-rendering:auto" d="m210.762-520.176 122.01 211.783-56.158.477-32.573-56.898-32.907 56.537-27.902-.036-14.27-24.702 46.882-80.45-33.178-57.854zm415.988-4.173-244.375 4.336 28.483 48.4 65.548-1.341-31.55 57.304 14.387 23.908 28.523-.473 44.865-81.59 66.68-1.315zM334.649-992.453l121.785 211.912-56.158.418-32.513-56.933-32.966 56.502-27.902-.065-14.243-24.718 46.966-80.399-33.117-57.89zM646.674-88.588 771.909-298.48l-56.144-1.336-33.44 56.393-32.037-57.033-27.9-.392-14.645 24.482 45.645 81.156-34.059 57.34z" transform="rotate(-14.185 2873.544 -11.808)scale(.36111)"/>
  <path class="f1" d="m416.214-1000.387 131.058-206.307-56.085-2.906-35.004 55.436-30.43-57.907-27.878-1.171-15.324 24.062 43.357 82.401-35.65 56.366z" style="color:#000;clip-rule:nonzero;display:inline;overflow:visible;visibility:visible;opacity:1;isolation:auto;mix-blend-mode:normal;color-interpolation:sRGB;color-interpolation-filters:linearRGB;solid-color:#000;solid-opacity:1;fill-opacity:1;fill-rule:evenodd;stroke:none;stroke-width:3;stroke-linecap:butt;stroke-linejoin:round;stroke-miterlimit:4;stroke-dasharray:none;stroke-dashoffset:0;stroke-opacity:1;color-rendering:auto;image-rendering:auto;shape-rendering:auto;text-rendering:auto" transform="rotate(-14.185 2873.544 -11.808)scale(.36111)"/>
  <path class="f2" style="color:#000;clip-rule:nonzero;display:inline;overflow:visible;visibility:visible;opacity:1;isolation:auto;mix-blend-mode:normal;color-interpolation:sRGB;color-interpolation-filters:linearRGB;solid-color:#000;solid-opacity:1;fill-opacity:1;fill-rule:evenodd;stroke:none;stroke-width:3;stroke-linecap:butt;stroke-linejoin:round;stroke-miterlimit:4;stroke-dasharray:none;stroke-dashoffset:0;stroke-opacity:1;color-rendering:auto;image-rendering:auto;shape-rendering:auto;text-rendering:auto" d="M367.071 418.207 250.314 632.93l-29.764-47.624 31.476-57.512-65.399 1.503-14.556-23.804 13.6-25.078 93.088-2.09 31.975-58.529z" transform="rotate(-14.185 2873.544 -11.808)scale(.36111)"/>
  <path class="f1" d="M404.083 516.027 531.65 307.543l27.294 49.08-34.37 55.831 65.39 1.837 13.32 24.517-14.86 24.35-93.074-2.663-34.922 56.82zm-91.908-104.682 122.4-211.558 28.493 48.395-32.988 56.66 65.415.227 13.921 24.182-14.258 24.709-93.111-.374-33.514 57.661z" style="color:#000;clip-rule:nonzero;display:inline;overflow:visible;visibility:visible;opacity:1;isolation:auto;mix-blend-mode:normal;color-interpolation:sRGB;color-interpolation-filters:linearRGB;solid-color:#000;solid-opacity:1;fill-opacity:1;fill-rule:evenodd;stroke:none;stroke-width:3;stroke-linecap:butt;stroke-linejoin:round;stroke-miterlimit:4;stroke-dasharray:none;stroke-dashoffset:0;stroke-opacity:1;color-rendering:auto;image-rendering:auto;shape-rendering:auto;text-rendering:auto" transform="rotate(-14.185 2873.544 -11.808)scale(.36111)"/>
  <path class="f2" style="color:#000;clip-rule:nonzero;display:inline;overflow:visible;visibility:visible;opacity:1;isolation:auto;mix-blend-mode:normal;color-interpolation:sRGB;color-interpolation-filters:linearRGB;solid-color:#000;solid-opacity:1;fill-opacity:1;fill-rule:evenodd;stroke:none;stroke-width:3;stroke-linecap:butt;stroke-linejoin:round;stroke-miterlimit:4;stroke-dasharray:none;stroke-dashoffset:0;stroke-opacity:1;color-rendering:auto;image-rendering:auto;shape-rendering:auto;text-rendering:auto" d="m601.308 405.457-118.565-213.73 56.157.432 31.648 57.418 33.818-55.996 27.898.487 13.867 24.93-48.178 79.68 32.238 58.384z" transform="rotate(-14.185 2873.544 -11.808)scale(.36111)"/>
  <path class="f1" style="color:#000;clip-rule:nonzero;display:inline;overflow:visible;visibility:visible;opacity:1;isolation:auto;mix-blend-mode:normal;color-interpolation:sRGB;color-interpolation-filters:linearRGB;solid-color:#000;solid-opacity:1;fill-opacity:1;fill-rule:evenodd;stroke:none;stroke-width:3;stroke-linecap:butt;stroke-linejoin:round;stroke-miterlimit:4;stroke-dasharray:none;stroke-dashoffset:0;stroke-opacity:1;color-rendering:auto;image-rendering:auto;shape-rendering:auto;text-rendering:auto" d="M309.404-710.252 431.6-498.577l-56.157.527-32.623-56.87-32.857 56.566-27.902-.011-14.29-24.69 46.81-80.49-33.23-57.826z" transform="rotate(-72.466 567.83 83.002)scale(.10782)"/>
  <path class="f2" style="color:#000;clip-rule:nonzero;display:inline;overflow:visible;visibility:visible;opacity:1;isolation:auto;mix-blend-mode:normal;color-interpolation:sRGB;color-interpolation-filters:linearRGB;solid-color:#000;solid-opacity:1;fill-opacity:1;fill-rule:evenodd;stroke:none;stroke-width:3;stroke-linecap:butt;stroke-linejoin:round;stroke-miterlimit:4;stroke-dasharray:none;stroke-dashoffset:0;stroke-opacity:1;color-rendering:auto;image-rendering:auto;shape-rendering:auto;text-rendering:auto" d="M353.51-797.443 231.291-585.78l-28.535-48.37 32.938-56.688-65.415-.172-13.941-24.17 14.236-24.72 93.112.293 33.464-57.69zm9.375 169.2 244.415.012-27.623 48.897-65.562-.182 32.56 56.737-13.962 24.159-28.527.032-46.301-80.784-66.693-.136zm142.258-92.746L382.946-932.664l56.157-.527 32.624 56.87 32.856-56.566 27.903.011 14.29 24.69-46.81 80.49 33.23 57.826z" transform="rotate(-72.466 567.83 83.002)scale(.10782)"/>
  <path class="f1" d="M309.404-710.252 431.6-498.577l-56.157.527-32.623-56.87-32.857 56.566-27.902-.011-14.29-24.69 46.81-80.49-33.23-57.826zm141.932-93.281-244.414-.012 27.622-48.896 65.562.181-32.558-56.737 13.96-24.158 28.528-.032 46.301 80.784 66.693.135zm9.536 169.691 122.217-211.664 28.535 48.37-32.938 56.688 65.415.172 13.941 24.17-14.236 24.72-93.112-.293-33.464 57.69z" style="color:#000;clip-rule:nonzero;display:inline;overflow:visible;visibility:visible;opacity:1;isolation:auto;mix-blend-mode:normal;color-interpolation:sRGB;color-interpolation-filters:linearRGB;solid-color:#000;solid-opacity:1;fill-opacity:1;fill-rule:evenodd;stroke:none;stroke-width:3;stroke-linecap:butt;stroke-linejoin:round;stroke-miterlimit:4;stroke-dasharray:none;stroke-dashoffset:0;stroke-opacity:1;color-rendering:auto;image-rendering:auto;shape-rendering:auto;text-rendering:auto" transform="rotate(-72.466 567.83 83.002)scale(.10782)"/>
  <path class="f2" style="color:#000;clip-rule:nonzero;display:inline;overflow:visible;visibility:visible;opacity:1;isolation:auto;mix-blend-mode:normal;color-interpolation:sRGB;color-interpolation-filters:linearRGB;solid-color:#000;solid-opacity:1;fill-opacity:1;fill-rule:evenodd;stroke:none;stroke-width:3;stroke-linecap:butt;stroke-linejoin:round;stroke-miterlimit:4;stroke-dasharray:none;stroke-dashoffset:0;stroke-opacity:1;color-rendering:auto;image-rendering:auto;shape-rendering:auto;text-rendering:auto" d="M309.404-710.252 431.6-498.577l-56.157.527-32.623-56.87-32.857 56.566-27.902-.011-14.29-24.69 46.81-80.49-33.23-57.826z" transform="rotate(-78.655 617.01 248.961)scale(.08471)"/>
  <path class="f1" style="color:#000;clip-rule:nonzero;display:inline;overflow:visible;visibility:visible;opacity:1;isolation:auto;mix-blend-mode:normal;color-interpolation:sRGB;color-interpolation-filters:linearRGB;solid-color:#000;solid-opacity:1;fill-opacity:1;fill-rule:evenodd;stroke:none;stroke-width:3;stroke-linecap:butt;stroke-linejoin:round;stroke-miterlimit:4;stroke-dasharray:none;stroke-dashoffset:0;stroke-opacity:1;color-rendering:auto;image-rendering:auto;shape-rendering:auto;text-rendering:auto" d="M353.51-797.443 231.291-585.78l-28.535-48.37 32.938-56.688-65.415-.172-13.941-24.17 14.236-24.72 93.112.293 33.464-57.69zm9.375 169.2 244.415.012-27.623 48.897-65.562-.182 32.56 56.737-13.962 24.159-28.527.032-46.301-80.784-66.693-.136zm142.258-92.746L382.946-932.664l56.157-.527 32.624 56.87 32.856-56.566 27.903.011 14.29 24.69-46.81 80.49 33.23 57.826z" transform="rotate(-78.655 617.01 248.961)scale(.08471)"/>
  <path class="f2" d="M309.404-710.252 431.6-498.577l-56.157.527-32.623-56.87-32.857 56.566-27.902-.011-14.29-24.69 46.81-80.49-33.23-57.826zm141.932-93.281-244.414-.012 27.622-48.896 65.562.181-32.558-56.737 13.96-24.158 28.528-.032 46.301 80.784 66.693.135zm9.536 169.691 122.217-211.664 28.535 48.37-32.938 56.688 65.415.172 13.941 24.17-14.236 24.72-93.112-.293-33.464 57.69z" style="color:#000;clip-rule:nonzero;display:inline;overflow:visible;visibility:visible;opacity:1;isolation:auto;mix-blend-mode:normal;color-interpolation:sRGB;color-interpolation-filters:linearRGB;solid-color:#000;solid-opacity:1;fill-opacity:1;fill-rule:evenodd;stroke:none;stroke-width:3;stroke-linecap:butt;stroke-linejoin:round;stroke-miterlimit:4;stroke-dasharray:none;stroke-dashoffset:0;stroke-opacity:1;color-rendering:auto;image-rendering:auto;shape-rendering:auto;text-rendering:auto" transform="rotate(-78.655 617.01 248.961)scale(.08471)"/>
</svg>
